<?xml version="1.0" encoding="UTF-8"?>
<svg version="1.1" xmlns="http://www.w3.org/2000/svg" width="397" height="234">
<path d="M0 0 C2.22802734 0.99291992 2.22802734 0.99291992 4.3359375 2.23046875 C5.13966797 2.69614258 5.94339844 3.16181641 6.77148438 3.64160156 C7.63064453 4.15174805 8.48980469 4.66189453 9.375 5.1875 C10.75268555 5.98945801 10.75268555 5.98945801 12.15820312 6.80761719 C15.11110597 8.52898233 18.05616227 10.26318408 21 12 C24.83125145 14.25356175 28.66479208 16.50317851 32.5 18.75 C33.96131348 19.60766968 33.96131348 19.60766968 35.45214844 20.48266602 C44.99757889 26.05645535 54.67369372 31.38543171 64.38085938 36.67089844 C64.97687958 36.99663849 65.57289978 37.32237854 66.1869812 37.6579895 C67.80262672 38.54068071 69.42004781 39.42011978 71.03759766 40.29931641 C74.13546199 42.07776729 77.11400102 43.89292488 80 46 C80 46.66 80 47.32 80 48 C77.875 49.75 77.875 49.75 75 51 C69.65362301 49.74805016 65.22714892 46.97032593 60.5625 44.1875 C58.85872628 43.18638721 57.15426947 42.18643629 55.44921875 41.1875 C54.5576709 40.66414063 53.66612305 40.14078125 52.74755859 39.6015625 C48.14779497 36.92034255 43.51241632 34.302896 38.875 31.6875 C37.93035889 31.15423096 36.98571777 30.62096191 36.01245117 30.0715332 C27.40718282 25.21932794 18.78645187 20.39464767 10.15966797 15.58081055 C9.16596191 15.02562744 8.17225586 14.47044434 7.1484375 13.8984375 C6.27364746 13.41036621 5.39885742 12.92229492 4.49755859 12.41943359 C2.74505459 11.42343571 1.0229972 10.3728445 -0.67333984 9.28393555 C-2.92488532 7.70213112 -2.92488532 7.70213112 -5.375 8.55859375 C-8.61835811 10.33954486 -11.82827136 12.15767462 -15 14.0625 C-16.51925993 14.9653005 -18.03881441 15.8676054 -19.55859375 16.76953125 C-20.83839111 17.53064209 -20.83839111 17.53064209 -22.14404297 18.30712891 C-29.01359237 22.37906048 -35.91055267 26.40473253 -42.80200195 30.43945312 C-44.0528995 31.17187096 -45.30379468 31.90429284 -46.5546875 32.63671875 C-47.17371445 32.99909637 -47.79274139 33.361474 -48.43052673 33.73483276 C-52.08880051 35.87732907 -55.74321301 38.02621799 -59.39411926 40.1812439 C-62.15688438 41.81120912 -64.92255525 43.43623566 -67.6875 45.0625 C-68.70271729 45.66416992 -69.71793457 46.26583984 -70.76391602 46.88574219 C-71.69131592 47.43004883 -72.61871582 47.97435547 -73.57421875 48.53515625 C-74.38463623 49.013479 -75.19505371 49.49180176 -76.0300293 49.98461914 C-78 51 -78 51 -80 51 C-80.07785076 62.50078087 -80.10730369 74.00057376 -80.07515812 85.50160408 C-80.06174757 90.84229309 -80.06493839 96.18189228 -80.10620117 101.52246094 C-80.14541926 106.67772163 -80.14085608 111.83126394 -80.10607719 116.98653793 C-80.10048301 118.95210479 -80.11060218 120.91778186 -80.13676643 122.88318253 C-80.73532183 133.23715529 -80.73532183 133.23715529 -77.10887146 142.46746826 C-74.7786476 144.05826722 -72.65135459 145.05908581 -70 146 C-69.06148193 146.54527344 -68.12296387 147.09054688 -67.15600586 147.65234375 C-66.35042236 148.07644531 -65.54483887 148.50054687 -64.71484375 148.9375 C-63.31903076 149.68036255 -63.31903076 149.68036255 -61.89501953 150.43823242 C-60.91903809 150.95361572 -59.94305664 151.46899902 -58.9375 152 C-50.39786645 156.56414975 -41.97151056 161.27917126 -33.625 166.1875 C-31.6419675 167.34902733 -29.65889532 168.51048693 -27.67578125 169.671875 C-24.87610146 171.31242747 -22.07733761 172.95436178 -19.28271484 174.60351562 C-16.80068259 176.0626076 -14.30849833 177.50246887 -11.8125 178.9375 C-10.72606201 179.58464966 -10.72606201 179.58464966 -9.61767578 180.24487305 C-6.84603853 181.82083038 -4.67938002 182.9989596 -1.44921875 183.00390625 C1.89397568 181.63356978 4.92900186 179.88358571 8 178 C9.50993505 177.09294778 11.0203939 176.18676721 12.53125 175.28125 C13.38332031 174.76820313 14.23539062 174.25515625 15.11328125 173.7265625 C20.25195917 170.65309073 25.42496482 167.63791224 30.59356689 164.61514282 C33.74825812 162.76984793 36.90157291 160.92220606 40.0546875 159.07421875 C40.96243423 158.54226143 40.96243423 158.54226143 41.88851929 157.9995575 C46.10677347 155.52649268 50.31856308 153.04271885 54.52612305 150.55151367 C56.52223481 149.37316457 58.52385763 148.20481631 60.52734375 147.0390625 C62.79903808 145.71687273 65.02482368 144.35779357 67.25390625 142.9609375 C72.17576185 139.98554144 72.17576185 139.98554144 75 139 C78.6875 140.125 78.6875 140.125 81 142 C79.60113005 146.19660986 76.67682708 147.19832462 73 149.25 C71.43794408 150.14433641 69.87680129 151.04026892 68.31640625 151.9375 C67.46320801 152.42605469 66.61000977 152.91460937 65.73095703 153.41796875 C60.76102845 156.29702625 55.85449813 159.28177951 50.9375 162.25 C41.45873698 167.9551996 31.94000687 173.5865358 22.35766602 179.11621094 C17.97648372 181.64946541 13.6292681 184.20321614 9.375 186.9453125 C8.68873535 187.38182129 8.0024707 187.81833008 7.29541016 188.26806641 C6.06487544 189.05744832 4.84455362 189.86312537 3.63818359 190.68896484 C0.95300507 192.40140558 -0.55288258 193.06760977 -3.73828125 192.5859375 C-8.46165908 190.28930109 -13.01375966 187.74851426 -17.5625 185.125 C-18.57973145 184.54419678 -19.59696289 183.96339355 -20.64501953 183.36499023 C-23.76624836 181.58167297 -26.88340697 179.79140388 -30 178 C-32.61542664 176.50151494 -35.23162983 175.00439672 -37.84814453 173.5078125 C-39.53832292 172.54106312 -41.22809921 171.57361042 -42.91748047 170.60546875 C-51.0110864 165.97445764 -59.14995156 161.42508673 -67.30029297 156.89477539 C-84.93584173 147.06415827 -84.93584173 147.06415827 -87 145 C-87.12428394 142.75011184 -87.1780574 140.49631738 -87.20532227 138.24316406 C-87.21522186 137.53547882 -87.22512146 136.82779358 -87.23532104 136.09866333 C-87.26711245 133.73768523 -87.29180701 131.37668817 -87.31640625 129.015625 C-87.33700519 127.36341873 -87.35800237 125.71121738 -87.37937927 124.059021 C-87.42346139 120.57518303 -87.46433415 117.09132758 -87.50268555 113.60742188 C-87.57009829 107.48539735 -87.64766634 101.36351059 -87.72644043 95.24162292 C-87.7792388 91.04237063 -87.82448983 86.84328922 -87.85327148 82.64379883 C-87.90259093 75.78247217 -87.96627449 68.9435342 -88.33007812 62.08984375 C-88.92683949 49.51921404 -88.92683949 49.51921404 -86.4777832 45.50488281 C-84.18781524 43.60665881 -82.13410109 42.5994472 -79.375 41.5 C-77.51846666 40.58027083 -75.66303361 39.65831797 -73.80859375 38.734375 C-72.84421387 38.28900391 -71.87983398 37.84363281 -70.88623047 37.38476562 C-66.21992118 35.14594764 -61.8568298 32.43506473 -57.4375 29.75 C-55.60572661 28.66533001 -53.7723466 27.58336941 -51.9375 26.50390625 C-45.8528128 22.91356928 -39.76921131 19.32141429 -33.68899536 15.72351074 C-32.00141716 14.72530705 -30.31310086 13.72835151 -28.62475586 12.73144531 C-27.56135986 12.10206055 -26.49796387 11.47267578 -25.40234375 10.82421875 C-24.3541748 10.20724121 -23.30600586 9.59026367 -22.22607422 8.95458984 C-19.94997017 7.57556086 -17.72765144 6.1747591 -15.51220703 4.70556641 C-14.93547745 4.33003128 -14.35874786 3.95449615 -13.76454163 3.56758118 C-12.15981835 2.51812108 -10.56692893 1.4506301 -8.97485352 0.38208008 C-5.37018837 -1.29260268 -3.7691365 -1.11498981 0 0 Z " fill="#020202" transform="translate(124,19)"/>
<path d="M0 0 C1.09119141 -0.00128906 2.18238281 -0.00257812 3.30664062 -0.00390625 C4.44681641 -0.00003906 5.58699219 0.00382812 6.76171875 0.0078125 C7.89029297 0.00394531 9.01886719 0.00007813 10.18164062 -0.00390625 C11.27669922 -0.00261719 12.37175781 -0.00132813 13.5 0 C14.49684814 0.00112793 15.49369629 0.00225586 16.52075195 0.00341797 C19.44921875 0.1328125 19.44921875 0.1328125 22.75854492 0.70361328 C24.09042847 0.91606689 24.09042847 0.91606689 25.44921875 1.1328125 C25.77921875 0.8028125 26.10921875 0.4728125 26.44921875 0.1328125 C29.11980726 -0.00833911 31.77354113 0.09034143 34.44921875 0.1328125 C36.15110322 3.53658144 35.63379989 7.31957149 35.63671875 11.0703125 C35.64896484 11.89466797 35.66121094 12.71902344 35.67382812 13.56835938 C35.67576172 14.36177734 35.67769531 15.15519531 35.6796875 15.97265625 C35.68379639 16.69831787 35.68790527 17.42397949 35.69213867 18.17163086 C35.44921875 20.1328125 35.44921875 20.1328125 33.44921875 23.1328125 C30.63671875 23.6328125 30.63671875 23.6328125 27.44921875 23.1328125 C24.71902135 20.80215618 22.61694878 18.3543737 20.453125 15.49609375 C16.08005292 12.05564042 12.3600988 12.39617123 6.94921875 12.5078125 C6.01207031 12.48847656 5.07492188 12.46914062 4.109375 12.44921875 C-0.50362466 12.48193506 -2.85344452 12.62772399 -6.66796875 15.390625 C-8.55234064 18.13508364 -9.23340222 19.35994125 -9.17578125 22.6328125 C-9.19511719 23.73109375 -9.19511719 23.73109375 -9.21484375 24.8515625 C-8.16780167 28.44845999 -6.50193393 29.83767949 -3.55078125 32.1328125 C-0.23704121 32.84662046 3.00784518 32.78333187 6.38671875 32.734375 C7.34441162 32.74238129 8.30210449 32.75038757 9.28881836 32.75863647 C12.34271751 32.78168442 15.395284 32.77224963 18.44921875 32.7578125 C21.50290359 32.75396291 24.55600034 32.7574187 27.60961914 32.77841187 C29.50720719 32.79048431 31.40496043 32.78785936 33.30249023 32.76870728 C38.6609006 32.79136902 42.46205677 33.14565052 46.44921875 37.1328125 C46.90959611 41.50639741 46.90959611 41.50639741 45.2578125 43.75390625 C42.89665394 45.55409841 41.20248688 45.62935353 38.26171875 45.8203125 C37.36066406 45.88605469 36.45960938 45.95179687 35.53125 46.01953125 C34.50064453 46.07560547 34.50064453 46.07560547 33.44921875 46.1328125 C33.79984375 47.2465625 34.15046875 48.3603125 34.51171875 49.5078125 C36.13780593 56.17712657 35.76120362 62.45103357 32.26171875 68.4453125 C28.6522962 73.59420057 24.48879992 77.12960431 18.44921875 79.1328125 C15.77368164 79.37573242 15.77368164 79.37573242 12.921875 79.36328125 C11.88224609 79.36134766 10.84261719 79.35941406 9.77148438 79.35742188 C8.69576172 79.34517578 7.62003906 79.33292969 6.51171875 79.3203125 C5.43986328 79.31966797 4.36800781 79.31902344 3.26367188 79.31835938 C-1.80493126 79.29011329 -6.55407844 79.05437021 -11.55078125 78.1328125 C-11.88078125 78.4628125 -12.21078125 78.7928125 -12.55078125 79.1328125 C-15.22136976 79.27396411 -17.87510363 79.17528357 -20.55078125 79.1328125 C-23.05009737 75.33424871 -22.84811905 71.45300412 -22.80078125 67.0703125 C-22.80851562 66.35037109 -22.81625 65.63042969 -22.82421875 64.88867188 C-22.81016043 61.10346887 -22.69837815 59.35420785 -20.55078125 56.1328125 C-17.17578125 55.6953125 -17.17578125 55.6953125 -13.55078125 56.1328125 C-11.36328125 57.8203125 -11.36328125 57.8203125 -9.55078125 60.1328125 C-6.98273009 63.65421285 -6.98273009 63.65421285 -3.55078125 66.1328125 C-0.2873277 66.4501206 2.98472743 66.45700643 6.26171875 66.5078125 C7.16470703 66.54519531 8.06769531 66.58257812 8.99804688 66.62109375 C13.5973123 66.68192165 15.74663641 66.65952607 19.5234375 63.828125 C21.93651769 60.45079167 22.44921875 58.27385252 22.44921875 54.1328125 C20.86082941 50.55893648 19.73287517 49.32191678 16.44921875 47.1328125 C14.54348378 46.82142748 14.54348378 46.82142748 12.45605469 46.84570312 C11.65802429 46.83228882 10.8599939 46.81887451 10.03778076 46.80505371 C9.17839905 46.79977661 8.31901733 46.79449951 7.43359375 46.7890625 C6.54440247 46.7744397 5.65521118 46.75981689 4.73907471 46.74475098 C1.89250188 46.69822795 -0.95400227 46.66406408 -3.80078125 46.6328125 C-7.53540811 46.59150729 -11.2695575 46.53771091 -15.00390625 46.4765625 C-15.85519104 46.4712854 -16.70647583 46.4660083 -17.58355713 46.46057129 C-22.59232852 46.37768706 -26.83891157 45.89382977 -31.55078125 44.1328125 C-33.17578125 41.8203125 -33.17578125 41.8203125 -33.55078125 39.1328125 C-32.80078125 36.4453125 -32.80078125 36.4453125 -30.55078125 34.1328125 C-27.25864147 33.1076518 -23.96746879 32.5623023 -20.55078125 32.1328125 C-20.88078125 31.1428125 -21.21078125 30.1528125 -21.55078125 29.1328125 C-22.44299398 21.08031025 -21.9831566 14.99738202 -17.33984375 8.23046875 C-12.50684407 2.56382938 -7.44689168 0.00845483 0 0 Z " fill="#929274" transform="translate(115.55078125,71.8671875)"/>
<path d="M0 0 C0.9384375 0.52980469 1.876875 1.05960938 2.84375 1.60546875 C3.97425781 2.229375 5.10476562 2.85328125 6.26953125 3.49609375 C7.56791715 4.27789933 8.86330018 5.06470541 10.15625 5.85546875 C17.39582221 10.19888903 24.71829531 14.37226311 32.09375 18.48046875 C42.66896648 24.37733381 53.19833139 30.34957132 63.70019531 36.37597656 C66.74589378 38.12291705 69.79472733 39.86433784 72.84375 41.60546875 C72.84375 42.26546875 72.84375 42.92546875 72.84375 43.60546875 C69.84375 44.60546875 69.84375 44.60546875 67.61743164 43.60839844 C66.75496826 43.08665039 65.89250488 42.56490234 65.00390625 42.02734375 C64.03380615 41.44911865 63.06370605 40.87089355 62.06420898 40.27514648 C61.02208252 39.64165283 59.97995605 39.00815918 58.90625 38.35546875 C56.71214112 37.04745806 54.5168109 35.74149408 52.3203125 34.4375 C51.22364258 33.78475098 50.12697266 33.13200195 48.99707031 32.45947266 C44.63955713 29.89746003 40.22293389 27.45528212 35.78125 25.04296875 C30.39100386 22.1134752 25.0249582 19.15111306 19.69921875 16.10546875 C18.14376343 15.21710327 18.14376343 15.21710327 16.55688477 14.31079102 C14.54570498 13.15947844 12.53694439 12.00392621 10.53100586 10.84350586 C7.98852923 9.38973478 5.42543136 7.98803104 2.84375 6.60546875 C1.83183594 6.0434375 0.81992188 5.48140625 -0.22265625 4.90234375 C-5.21771453 4.39685183 -8.62705252 7.28326215 -12.71875 9.91796875 C-14.68137553 11.13039051 -16.64496896 12.34124646 -18.609375 13.55078125 C-20.1862207 14.53353027 -20.1862207 14.53353027 -21.79492188 15.53613281 C-27.172999 18.84704084 -32.63117489 22.01864339 -38.0881958 25.19714355 C-41.17863953 26.99798828 -44.26518735 28.80547511 -47.3515625 30.61328125 C-47.9392038 30.9572998 -48.52684509 31.30131836 -49.1322937 31.65576172 C-52.66683851 33.72673989 -56.19243098 35.81205976 -59.7109375 37.91015625 C-60.50910889 38.38493408 -61.30728027 38.85971191 -62.12963867 39.34887695 C-63.55908873 40.2004944 -64.98649393 41.05555799 -66.41137695 41.91479492 C-70.93402431 44.60546875 -70.93402431 44.60546875 -73.15625 44.60546875 C-73.11822436 55.22806869 -73.05890838 65.85031532 -72.97234726 76.47263718 C-72.93282431 81.40494882 -72.90065952 86.33708064 -72.88525391 91.26953125 C-72.87011898 96.02893723 -72.83573001 100.787849 -72.78794098 105.54703522 C-72.77309445 107.36347409 -72.76520711 109.1799835 -72.76436615 110.99648285 C-72.76200452 113.53953346 -72.73499145 116.08120932 -72.70214844 118.62402344 C-72.7071788 119.37640289 -72.71220917 120.12878235 -72.71739197 120.90396118 C-72.64815345 124.36498473 -72.43743155 126.24703584 -70.27113342 129.00849915 C-67.95879253 130.75457086 -65.64682288 132.20722621 -63.10546875 133.6015625 C-62.10837891 134.15360352 -61.11128906 134.70564453 -60.08398438 135.27441406 C-59.01470703 135.85803711 -57.94542969 136.44166016 -56.84375 137.04296875 C-54.57657891 138.29643376 -52.30965734 139.55035017 -50.04296875 140.8046875 C-48.8936084 141.43810059 -47.74424805 142.07151367 -46.56005859 142.72412109 C-41.40856486 145.57144649 -36.28098112 148.46033408 -31.15625 151.35546875 C-29.74230957 152.14932983 -29.74230957 152.14932983 -28.29980469 152.95922852 C-23.86800578 155.45724301 -19.4779765 157.99755751 -15.15234375 160.67578125 C-14.37826172 161.15047852 -13.60417969 161.62517578 -12.80664062 162.11425781 C-11.38071038 162.99460928 -9.9632098 163.88883875 -8.55664062 164.79980469 C-5.7335028 166.53856804 -3.62703483 167.59137723 -0.28515625 167.69140625 C4.25751397 166.11479911 8.21707091 163.8027702 12.34375 161.35546875 C13.7215564 160.55290649 13.7215564 160.55290649 15.12719727 159.73413086 C18.03861856 158.0344222 20.94172606 156.3211644 23.84375 154.60546875 C25.67563701 153.52840047 27.50766563 152.45157301 29.33984375 151.375 C34.8488901 148.13150822 40.34683691 144.86946726 45.84375 141.60546875 C49.88428348 139.20771833 53.92620448 136.81232495 57.96875 134.41796875 C58.89937256 133.8650415 59.82999512 133.31211426 60.78881836 132.74243164 C61.65514893 132.2293042 62.52147949 131.71617676 63.4140625 131.1875 C64.55512451 130.51037964 64.55512451 130.51037964 65.71923828 129.81958008 C67.72915329 128.67095823 69.762643 127.61830561 71.84375 126.60546875 C72.83375 128.09046875 72.83375 128.09046875 73.84375 129.60546875 C58.60209771 138.65975137 43.35189202 147.69920278 28.03637695 156.62817383 C22.79954572 159.68341655 17.5745265 162.75043098 12.4140625 165.93359375 C11.23287842 166.65506592 11.23287842 166.65506592 10.02783203 167.39111328 C8.62795333 168.24956785 7.23494155 169.11938412 5.85107422 170.00341797 C1.47611102 172.67159381 1.47611102 172.67159381 -1.56103516 172.35400391 C-4.28494426 171.5683496 -6.41412802 170.53726213 -8.8671875 169.12109375 C-9.76993408 168.60498535 -10.67268066 168.08887695 -11.6027832 167.55712891 C-13.05237427 166.71480713 -13.05237427 166.71480713 -14.53125 165.85546875 C-16.61575833 164.65993463 -18.70039729 163.46462827 -20.78515625 162.26953125 C-21.84750488 161.65754883 -22.90985352 161.04556641 -24.00439453 160.41503906 C-27.82660263 158.22060015 -31.66321959 156.05322896 -35.51148987 153.90484619 C-37.38493511 152.84411622 -39.24750106 151.763735 -41.09413147 150.65698242 C-46.26122086 147.59675649 -51.21936473 145.14122613 -56.90820312 143.19775391 C-64.17391444 140.42224731 -71.73115326 137.31798411 -76.15625 130.60546875 C-81.04020834 118.42980565 -79.05027798 103.14204742 -78.46337891 90.34759521 C-78.26358656 85.35044194 -78.21903531 80.35198438 -78.15820312 75.3515625 C-78.04768716 68.06785237 -77.88119139 60.78963853 -77.59057617 53.51074219 C-77.56267502 52.75028091 -77.53477386 51.98981964 -77.50602722 51.20631409 C-77.37067718 48.11386462 -77.1409769 45.55964945 -76.15625 42.60546875 C-74.05273438 41.12597656 -74.05273438 41.12597656 -71.25 39.55859375 C-70.20875977 38.96868652 -69.16751953 38.3787793 -68.09472656 37.77099609 C-66.39268066 36.82281006 -66.39268066 36.82281006 -64.65625 35.85546875 C-62.26307926 34.5031719 -59.87383499 33.14399641 -57.484375 31.78515625 C-56.87285583 31.43848907 -56.26133667 31.0918219 -55.63128662 30.73464966 C-49.49615056 27.2495535 -43.44705628 23.62630048 -37.40625 19.98046875 C-36.38684326 19.36985596 -35.36743652 18.75924316 -34.31713867 18.13012695 C-29.15165817 15.03346677 -24.01468072 11.89935618 -18.91015625 8.703125 C-17.91016602 8.08711426 -16.91017578 7.47110352 -15.87988281 6.83642578 C-13.98734184 5.67049103 -12.10447986 4.48864483 -10.23339844 3.28857422 C-4.02493411 -0.50311676 -4.02493411 -0.50311676 0 0 Z " fill="#040404" transform="translate(122.15625,28.39453125)"/>
<path d="M0 0 C-0.49215648 7.13626901 -2.00013698 11.36597393 -7.5625 16.25 C-13.84161778 20.75808456 -18.49064092 21.15374824 -26.109375 21.1328125 C-26.87679016 21.13376923 -27.64420532 21.13472595 -28.43487549 21.13571167 C-30.04854413 21.1363896 -31.66221556 21.13456243 -33.27587891 21.13037109 C-35.75559522 21.12498785 -38.23513282 21.13034417 -40.71484375 21.13671875 C-42.28385457 21.13605848 -43.85286527 21.13477837 -45.421875 21.1328125 C-46.53897858 21.13584885 -46.53897858 21.13584885 -47.6786499 21.13894653 C-52.8850287 21.1149713 -52.8850287 21.1149713 -54 20 C-54.08631874 18.65732587 -54.10706473 17.31025678 -54.09765625 15.96484375 C-54.09443359 15.15595703 -54.09121094 14.34707031 -54.08789062 13.51367188 C-54.07951172 12.66353516 -54.07113281 11.81339844 -54.0625 10.9375 C-54.05798828 10.08349609 -54.05347656 9.22949219 -54.04882812 8.34960938 C-54.03700373 6.23304337 -54.01906769 4.11651315 -54 2 C-49.375 -0.125 -49.375 -0.125 -46 1 C-44.70096009 2.96366498 -43.65546152 4.99944106 -42.57421875 7.08984375 C-40.33889016 9.80219036 -38.3993797 10.21057059 -35 11 C-27.37285706 11.6335383 -19.63454739 12.2219847 -13 8 C-10.89949073 5.82705937 -10.05464885 4.14686878 -9 1.3125 C-8.67 0.549375 -8.34 -0.21375 -8 -1 C-4.37673261 -2.2077558 -3.35853631 -1.54311128 0 0 Z " fill="#9C9B7B" transform="translate(149,129)"/>
<path d="M0 0 C1.15822266 -0.01740234 1.15822266 -0.01740234 2.33984375 -0.03515625 C8.01401144 -0.00565451 8.01401144 -0.00565451 10.23242188 1.73193359 C11.96663845 3.97986841 11.72399593 5.61238352 11.5 8.375 C9.85 8.705 8.2 9.035 6.5 9.375 C6.17 8.385 5.84 7.395 5.5 6.375 C1.87 6.375 -1.76 6.375 -5.5 6.375 C-5.5 7.695 -5.5 9.015 -5.5 10.375 C-4.44039062 10.35179688 -3.38078125 10.32859375 -2.2890625 10.3046875 C-0.9010487 10.28593056 0.4869727 10.26773028 1.875 10.25 C2.92300781 10.22486328 2.92300781 10.22486328 3.9921875 10.19921875 C5.82897486 10.18155733 7.66601963 10.27196739 9.5 10.375 C11.5 12.375 11.5 12.375 11.765625 14.90625 C11.76046875 15.8859375 11.7553125 16.865625 11.75 17.875 C11.75515625 18.8546875 11.7603125 19.834375 11.765625 20.84375 C11.5 23.375 11.5 23.375 9.5 25.375 C6.54147891 25.81860072 3.55051549 25.69912652 0.5625 25.6875 C-0.26185547 25.70361328 -1.08621094 25.71972656 -1.93554688 25.73632812 C-2.72896484 25.73697266 -3.52238281 25.73761719 -4.33984375 25.73828125 C-5.06550537 25.74126221 -5.79116699 25.74424316 -6.53881836 25.74731445 C-9.06493151 25.26775233 -9.98171502 24.42175384 -11.5 22.375 C-11.1875 19.6875 -11.1875 19.6875 -10.5 17.375 C-8.85 17.375 -7.2 17.375 -5.5 17.375 C-5.5 18.035 -5.5 18.695 -5.5 19.375 C-1.87 19.375 1.76 19.375 5.5 19.375 C5.5 18.055 5.5 16.735 5.5 15.375 C4.44039062 15.39820313 3.38078125 15.42140625 2.2890625 15.4453125 C0.9010487 15.46406944 -0.4869727 15.48226972 -1.875 15.5 C-2.92300781 15.52513672 -2.92300781 15.52513672 -3.9921875 15.55078125 C-5.82897486 15.56844267 -7.66601963 15.47803261 -9.5 15.375 C-12.01012963 12.86487037 -11.79721609 11.90694763 -11.8125 8.4375 C-11.82925781 7.56222656 -11.84601563 6.68695313 -11.86328125 5.78515625 C-10.88472491 -0.70698637 -5.41239771 -0.0813215 0 0 Z " fill="#010101" transform="translate(199.5,116.625)"/>
<path d="M0 0 C0.84175781 -0.00257812 1.68351563 -0.00515625 2.55078125 -0.0078125 C3.87142578 0.00378906 3.87142578 0.00378906 5.21875 0.015625 C6.09917969 0.00789063 6.97960937 0.00015625 7.88671875 -0.0078125 C8.72847656 -0.00523438 9.57023438 -0.00265625 10.4375 0 C11.59668945 0.00338379 11.59668945 0.00338379 12.77929688 0.00683594 C14.71875 0.265625 14.71875 0.265625 16.71875 2.265625 C16.84375 5.390625 16.84375 5.390625 16.71875 8.265625 C14.73875 8.265625 12.75875 8.265625 10.71875 8.265625 C10.71875 7.275625 10.71875 6.285625 10.71875 5.265625 C7.08875 5.265625 3.45875 5.265625 -0.28125 5.265625 C-0.28125 6.585625 -0.28125 7.905625 -0.28125 9.265625 C0.77835938 9.24242188 1.83796875 9.21921875 2.9296875 9.1953125 C4.3177013 9.17655556 5.7057227 9.15835528 7.09375 9.140625 C8.14175781 9.11548828 8.14175781 9.11548828 9.2109375 9.08984375 C11.04772486 9.07218233 12.88476963 9.16259239 14.71875 9.265625 C16.71875 11.265625 16.71875 11.265625 16.984375 13.796875 C16.97921875 14.7765625 16.9740625 15.75625 16.96875 16.765625 C16.97390625 17.7453125 16.9790625 18.725 16.984375 19.734375 C16.71875 22.265625 16.71875 22.265625 14.71875 24.265625 C12.77929688 24.52441406 12.77929688 24.52441406 10.4375 24.53125 C9.59574219 24.53382812 8.75398437 24.53640625 7.88671875 24.5390625 C7.00628906 24.53132813 6.12585938 24.52359375 5.21875 24.515625 C3.89810547 24.52722656 3.89810547 24.52722656 2.55078125 24.5390625 C1.70902344 24.53648438 0.86726562 24.53390625 0 24.53125 C-0.77279297 24.52899414 -1.54558594 24.52673828 -2.34179688 24.52441406 C-4.28125 24.265625 -4.28125 24.265625 -6.28125 22.265625 C-6.46875 19.703125 -6.46875 19.703125 -6.28125 17.265625 C-5.28125 16.265625 -5.28125 16.265625 -2.71875 16.203125 C-1.914375 16.22375 -1.11 16.244375 -0.28125 16.265625 C0.04875 16.925625 0.37875 17.585625 0.71875 18.265625 C3.07474235 18.73314288 3.07474235 18.73314288 5.78125 18.890625 C6.70035156 18.96539062 7.61945313 19.04015625 8.56640625 19.1171875 C9.27667969 19.16617188 9.98695313 19.21515625 10.71875 19.265625 C10.71875 17.945625 10.71875 16.625625 10.71875 15.265625 C9.74292969 15.28882812 8.76710937 15.31203125 7.76171875 15.3359375 C6.48941406 15.35398437 5.21710938 15.37203125 3.90625 15.390625 C2.00939453 15.42542969 2.00939453 15.42542969 0.07421875 15.4609375 C-3.28125 15.265625 -3.28125 15.265625 -6.28125 13.265625 C-6.64453125 10.734375 -6.64453125 10.734375 -6.59375 7.765625 C-6.58988281 6.7859375 -6.58601562 5.80625 -6.58203125 4.796875 C-6.05381432 0.35162087 -3.9999814 0.01167634 0 0 Z " fill="#030304" transform="translate(194.28125,86.734375)"/>
<path d="M0 0 C3.238125 -0.0825 6.47625 -0.165 9.8125 -0.25 C10.82932861 -0.28641602 11.84615723 -0.32283203 12.89379883 -0.36035156 C14.10072388 -0.37533691 14.10072388 -0.37533691 15.33203125 -0.390625 C16.56530151 -0.4220459 16.56530151 -0.4220459 17.82348633 -0.45410156 C20 0 20 0 21.77124023 1.85620117 C23.33635138 4.58682723 23.33513714 6.43370993 23.25 9.5625 C23.23453125 10.51253906 23.2190625 11.46257812 23.203125 12.44140625 C23 15 23 15 22 18 C22.32033957 20.00212229 22.65259077 22.00239695 23 24 C22 25 22 25 19.625 25.375 C18.325625 25.189375 18.325625 25.189375 17 25 C15.25 22.5625 15.25 22.5625 14 20 C12.03177114 18.03177114 8.65191291 18.33751619 6 18 C6 20.31 6 22.62 6 25 C4.02 25 2.04 25 0 25 C0 16.75 0 8.5 0 0 Z M6 6 C6 7.98 6 9.96 6 12 C9.63 12 13.26 12 17 12 C17 10.02 17 8.04 17 6 C13.37 6 9.74 6 6 6 Z " fill="#010101" transform="translate(358,117)"/>
<path d="M0 0 C1.15822266 -0.01740234 1.15822266 -0.01740234 2.33984375 -0.03515625 C7.9776195 -0.00584372 7.9776195 -0.00584372 10.21923828 1.62841797 C11.81782194 3.80841558 11.88649807 5.03294583 11.8984375 7.71875 C11.90423828 8.96978516 11.90423828 8.96978516 11.91015625 10.24609375 C11.89855469 11.11363281 11.88695312 11.98117188 11.875 12.875 C11.88660156 13.74253906 11.89820313 14.61007813 11.91015625 15.50390625 C11.90628906 16.33792969 11.90242188 17.17195313 11.8984375 18.03125 C11.89505371 18.79244141 11.89166992 19.55363281 11.88818359 20.33789062 C11.39035598 22.95038977 10.64584488 23.82758829 8.5 25.375 C6.53881836 25.74731445 6.53881836 25.74731445 4.33984375 25.73828125 C3.54642578 25.73763672 2.75300781 25.73699219 1.93554688 25.73632812 C1.11119141 25.72021484 0.28683594 25.70410156 -0.5625 25.6875 C-1.39072266 25.69072266 -2.21894531 25.69394531 -3.07226562 25.69726562 C-9.23287408 25.64212592 -9.23287408 25.64212592 -11.5 23.375 C-11.94869661 20.08256396 -11.82408242 16.75702257 -11.8125 13.4375 C-11.82861328 12.51775391 -11.84472656 11.59800781 -11.86132812 10.65039062 C-11.86197266 9.76673828 -11.86261719 8.88308594 -11.86328125 7.97265625 C-11.86626221 7.16320557 -11.86924316 6.35375488 -11.87231445 5.51977539 C-10.77356131 -0.80976318 -5.26533289 -0.07911185 0 0 Z M-5.5 6.375 C-5.5 10.665 -5.5 14.955 -5.5 19.375 C-1.87 19.375 1.76 19.375 5.5 19.375 C5.5 15.085 5.5 10.795 5.5 6.375 C1.87 6.375 -1.76 6.375 -5.5 6.375 Z " fill="#020202" transform="translate(344.5,116.625)"/>
<path d="M0 0 C6.93 0 13.86 0 21 0 C21 1.65 21 3.3 21 5 C16.05 5.33 11.1 5.66 6 6 C5.67 6.99 5.34 7.98 5 9 C9.62 9 14.24 9 19 9 C19.33 10.65 19.66 12.3 20 14 C19 15 19 15 15.83984375 15.09765625 C13.90818359 15.08025391 13.90818359 15.08025391 11.9375 15.0625 C10.64714844 15.05347656 9.35679687 15.04445313 8.02734375 15.03515625 C7.02832031 15.02355469 6.02929688 15.01195313 5 15 C5.99 16.485 5.99 16.485 7 18 C9.82979281 18.32721066 9.82979281 18.32721066 13 18.125 C18.82959641 17.91479821 18.82959641 17.91479821 21 19 C21 20.65 21 22.3 21 24 C13.74 24 6.48 24 -1 24 C-1.020625 20.41125 -1.04125 16.8225 -1.0625 13.125 C-1.071604 11.99465332 -1.08070801 10.86430664 -1.09008789 9.69970703 C-1.09258545 8.81138184 -1.09508301 7.92305664 -1.09765625 7.0078125 C-1.10289307 6.09660645 -1.10812988 5.18540039 -1.11352539 4.24658203 C-1 2 -1 2 0 0 Z " fill="#010101" transform="translate(245,87)"/>
<path d="M0 0 C1.19012695 0.0009668 1.19012695 0.0009668 2.40429688 0.00195312 C3.22865234 0.01806641 4.05300781 0.03417969 4.90234375 0.05078125 C5.73056641 0.04755859 6.55878906 0.04433594 7.41210938 0.04101562 C13.57271783 0.09615533 13.57271783 0.09615533 15.83984375 2.36328125 C15.96484375 5.48828125 15.96484375 5.48828125 15.83984375 8.36328125 C14.18984375 8.69328125 12.53984375 9.02328125 10.83984375 9.36328125 C10.50984375 8.37328125 10.17984375 7.38328125 9.83984375 6.36328125 C6.20984375 6.36328125 2.57984375 6.36328125 -1.16015625 6.36328125 C-1.16015625 10.65328125 -1.16015625 14.94328125 -1.16015625 19.36328125 C2.46984375 19.36328125 6.09984375 19.36328125 9.83984375 19.36328125 C9.83984375 18.70328125 9.83984375 18.04328125 9.83984375 17.36328125 C11.81984375 17.36328125 13.79984375 17.36328125 15.83984375 17.36328125 C15.96484375 20.23828125 15.96484375 20.23828125 15.83984375 23.36328125 C13.07647035 26.12665465 11.18436932 25.65178377 7.41210938 25.68554688 C6.16977539 25.68071289 6.16977539 25.68071289 4.90234375 25.67578125 C4.07798828 25.69189453 3.25363281 25.70800781 2.40429688 25.72460938 C1.61087891 25.72525391 0.81746094 25.72589844 0 25.7265625 C-0.72566162 25.72954346 -1.45132324 25.73252441 -2.19897461 25.7355957 C-4.77163625 25.24719672 -5.63364253 24.47376528 -7.16015625 22.36328125 C-7.54833984 20.32617188 -7.54833984 20.32617188 -7.55859375 18.01953125 C-7.56246094 17.18550781 -7.56632813 16.35148438 -7.5703125 15.4921875 C-7.55291016 14.19087891 -7.55291016 14.19087891 -7.53515625 12.86328125 C-7.54675781 11.99574219 -7.55835938 11.12820312 -7.5703125 10.234375 C-7.56451172 8.98333984 -7.56451172 8.98333984 -7.55859375 7.70703125 C-7.55520996 6.94583984 -7.55182617 6.18464844 -7.54833984 5.40039062 C-6.72008468 1.05387421 -4.13590226 -0.01698994 0 0 Z " fill="#020202" transform="translate(220.16015625,116.63671875)"/>
<path d="M0 0 C4.888125 -0.061875 4.888125 -0.061875 9.875 -0.125 C10.90093262 -0.14320801 11.92686523 -0.16141602 12.98388672 -0.18017578 C13.79100098 -0.1851709 14.59811523 -0.19016602 15.4296875 -0.1953125 C16.25710449 -0.20578613 17.08452148 -0.21625977 17.93701172 -0.22705078 C20 0 20 0 22 2 C22.265625 5.1875 22.265625 5.1875 22.25 9 C22.25515625 10.258125 22.2603125 11.51625 22.265625 12.8125 C22 16 22 16 20 18 C17.41935871 18.14497985 14.95056116 18.18677545 12.375 18.125 C11.31539063 18.11146484 11.31539063 18.11146484 10.234375 18.09765625 C8.48943902 18.07407603 6.74467705 18.03820461 5 18 C5 20.31 5 22.62 5 25 C3.35 25 1.7 25 0 25 C0 16.75 0 8.5 0 0 Z M5 7 C5 8.65 5 10.3 5 12 C8.63 12 12.26 12 16 12 C16 10.02 16 8.04 16 6 C14.35425434 5.97311849 12.70838587 5.95365877 11.0625 5.9375 C9.68771484 5.92009766 9.68771484 5.92009766 8.28515625 5.90234375 C6.03406673 5.74050951 6.03406673 5.74050951 5 7 Z " fill="#020202" transform="translate(286,117)"/>
<path d="M0 0 C1.65 0.33 3.3 0.66 5 1 C5 6.94 5 12.88 5 19 C8.63 19 12.26 19 16 19 C16 12.73 16 6.46 16 0 C17.65 0 19.3 0 21 0 C22.82189994 3.64379989 22.22760405 7.92582485 22.25 11.9375 C22.270625 12.85724609 22.29125 13.77699219 22.3125 14.72460938 C22.31765625 15.60826172 22.3228125 16.49191406 22.328125 17.40234375 C22.34214355 18.61651978 22.34214355 18.61651978 22.35644531 19.85522461 C22 22 22 22 20.73950195 23.76464844 C18.60496824 25.28054186 17.44050245 25.37396454 14.83984375 25.36328125 C14.04642578 25.36263672 13.25300781 25.36199219 12.43554688 25.36132812 C11.61119141 25.34521484 10.78683594 25.32910156 9.9375 25.3125 C9.10927734 25.31572266 8.28105469 25.31894531 7.42773438 25.32226562 C1.26712592 25.26712592 1.26712592 25.26712592 -1 23 C-1.24291992 20.76928711 -1.24291992 20.76928711 -1.23046875 18.02734375 C-1.22853516 17.04572266 -1.22660156 16.06410156 -1.22460938 15.05273438 C-1.21236328 14.02470703 -1.20011719 12.99667969 -1.1875 11.9375 C-1.18685547 10.90560547 -1.18621094 9.87371094 -1.18554688 8.81054688 C-1.14015997 1.14015997 -1.14015997 1.14015997 0 0 Z " fill="#020202" transform="translate(239,117)"/>
<path d="M0 0 C6.5658064 0.04175394 13.13077097 0.114163 19.69604492 0.20751953 C21.92773838 0.23568072 24.15953068 0.2569193 26.39135742 0.27099609 C29.60646999 0.29249228 32.8204002 0.33917863 36.03515625 0.390625 C37.02709488 0.39185364 38.01903351 0.39308228 39.04103088 0.39434814 C45.20645001 0.52362035 48.95881752 1.37831954 54 5 C56.41200723 8.38081899 56.47908756 11.69209018 56.37890625 15.74609375 C55.7075091 19.73986854 54.01525997 21.31248568 51 24 C43.6137676 27.10328038 33.42359061 27.67124851 25.8125 24.875 C22.4883373 22.65889153 20.86815691 20.51213498 19 17 C19 16.34 19 15.68 19 15 C16.69 15.33 14.38 15.66 12 16 C12 21.94 12 27.88 12 34 C14.64 34 17.28 34 20 34 C19.67 34.66 19.34 35.32 19 36 C16.36 36 13.72 36 11 36 C8.50068388 32.20143621 8.7026622 28.32019162 8.75 23.9375 C8.74226563 23.21755859 8.73453125 22.49761719 8.7265625 21.75585938 C8.74062082 17.97065637 8.8524031 16.22139535 11 13 C14.375 12.5625 14.375 12.5625 18 13 C20.1875 14.6875 20.1875 14.6875 22 17 C24.56805116 20.52140035 24.56805116 20.52140035 28 23 C31.26345355 23.3173081 34.53550868 23.32419393 37.8125 23.375 C38.71548828 23.41238281 39.61847656 23.44976562 40.54882812 23.48828125 C45.14809355 23.54910915 47.29741766 23.52671357 51.07421875 20.6953125 C53.48729894 17.31797917 54 15.14104002 54 11 C52.41161066 7.42612398 51.28365642 6.18910428 48 4 C46.09426503 3.68861498 46.09426503 3.68861498 44.00683594 3.71289062 C43.20880554 3.69947632 42.41077515 3.68606201 41.58856201 3.67224121 C40.7291803 3.66696411 39.86979858 3.66168701 38.984375 3.65625 C38.09518372 3.6416272 37.20599243 3.62700439 36.28985596 3.61193848 C33.44328313 3.56541545 30.59677898 3.53125158 27.75 3.5 C24.01537314 3.45869479 20.28122375 3.40489841 16.546875 3.34375 C15.69559021 3.3384729 14.84430542 3.3331958 13.96722412 3.32775879 C8.94744517 3.2446924 4.76312555 2.60533192 0 1 C0 0.67 0 0.34 0 0 Z " fill="#767660" transform="translate(84,115)"/>
<path d="M0 0 C1.65 0 3.3 0 5 0 C6 1 6 1 6.11352539 2.76586914 C6.10828857 3.51473389 6.10305176 4.26359863 6.09765625 5.03515625 C6.09282227 6.24848633 6.09282227 6.24848633 6.08789062 7.48632812 C6.07951172 8.33646484 6.07113281 9.18660156 6.0625 10.0625 C6.05798828 10.91650391 6.05347656 11.77050781 6.04882812 12.65039062 C6.03700373 14.76695663 6.01906769 16.88348685 6 19 C10.95 19 15.9 19 21 19 C21 20.98 21 22.96 21 25 C14.07 25 7.14 25 0 25 C0 16.75 0 8.5 0 0 Z " fill="#020202" transform="translate(263,117)"/>
<path d="M0 0 C1.40958984 -0.00193359 1.40958984 -0.00193359 2.84765625 -0.00390625 C3.83636719 -0.00003906 4.82507813 0.00382812 5.84375 0.0078125 C7.32681641 0.00201172 7.32681641 0.00201172 8.83984375 -0.00390625 C9.77957031 -0.00261719 10.71929687 -0.00132813 11.6875 0 C12.55568359 0.00112793 13.42386719 0.00225586 14.31835938 0.00341797 C16.34375 0.1328125 16.34375 0.1328125 17.34375 1.1328125 C17.38438832 2.79898365 17.386471 4.46669345 17.34375 6.1328125 C14.70375 6.4628125 12.06375 6.7928125 9.34375 7.1328125 C9.01375 13.0728125 8.68375 19.0128125 8.34375 25.1328125 C6.69375 25.1328125 5.04375 25.1328125 3.34375 25.1328125 C2.34375 24.1328125 2.34375 24.1328125 2.24609375 20.31640625 C2.25276911 18.73434568 2.26473125 17.15230091 2.28125 15.5703125 C2.28576172 14.76400391 2.29027344 13.95769531 2.29492188 13.12695312 C2.30674482 11.12887494 2.32468086 9.13083467 2.34375 7.1328125 C-0.29625 6.8028125 -2.93625 6.4728125 -5.65625 6.1328125 C-5.698971 4.46669345 -5.69688832 2.79898365 -5.65625 1.1328125 C-4.03424485 -0.48919265 -2.23601969 0.002905 0 0 Z " fill="#020202" transform="translate(314.65625,116.8671875)"/>
<path d="M0 0 C7.26 0 14.52 0 22 0 C22 1.65 22 3.3 22 5 C19.36 5 16.72 5 14 5 C14 11.27 14 17.54 14 24 C12.02 24 10.04 24 8 24 C7.67 18.06 7.34 12.12 7 6 C4.69 5.67 2.38 5.34 0 5 C0 3.35 0 1.7 0 0 Z " fill="#020202" transform="translate(221,87)"/>
<path d="M0 0 C0 1.32 0 2.64 0 4 C-0.99 4.66 -1.98 5.32 -3 6 C-2.608125 6.721875 -2.21625 7.44375 -1.8125 8.1875 C-1.544375 9.115625 -1.27625 10.04375 -1 11 C-1.97383946 12.68208635 -2.97695052 14.34738161 -4 16 C-4.25926574 19.75935317 -4.19211438 22.42365687 -3 26 C-3.99 26 -4.98 26 -6 26 C-6 25.34 -6 24.68 -6 24 C-7.134375 23.855625 -8.26875 23.71125 -9.4375 23.5625 C-13 23 -13 23 -14 22 C-14.13568319 18.33655389 -14.16461426 15.49384279 -13 12 C-12.01 12 -11.02 12 -10 12 C-10.2475 11.443125 -10.495 10.88625 -10.75 10.3125 C-11 8 -11 8 -9.375 5.4375 C-6.68899782 2.68081356 -4.02499547 0 0 0 Z " fill="#9C9C7C" transform="translate(109,75)"/>
<path d="M0 0 C1.98 0 3.96 0 6 0 C6 7.92 6 15.84 6 24 C4.35 24 2.7 24 1 24 C0 23 0 23 -0.11352539 20.77514648 C-0.10828857 19.81680908 -0.10305176 18.85847168 -0.09765625 17.87109375 C-0.09443359 16.83662109 -0.09121094 15.80214844 -0.08789062 14.73632812 C-0.07951172 13.64771484 -0.07113281 12.55910156 -0.0625 11.4375 C-0.05798828 10.34501953 -0.05347656 9.25253906 -0.04882812 8.12695312 C-0.03699826 5.41791505 -0.02051543 2.70898401 0 0 Z " fill="#010101" transform="translate(213,87)"/>
<path d="M0 0 C1.125 1.75 1.125 1.75 2 4 C1.125 6.25 1.125 6.25 0 8 C0 7.34 0 6.68 0 6 C-0.66 6 -1.32 6 -2 6 C-2 9.3 -2 12.6 -2 16 C0.31 16.66 2.62 17.32 5 18 C4.7477201 21.11145209 4.44031706 22.58903741 2.125 24.75 C-2.4729563 26.58918252 -7.08673238 26.75046452 -12 27 C-12.66 29.31 -13.32 31.62 -14 34 C-15.1875 32.3125 -15.1875 32.3125 -16 30 C-15.25 27.375 -15.25 27.375 -13 25 C-9.70919405 23.96997246 -6.41673713 23.42949604 -3 23 C-3.33 22.01 -3.66 21.02 -4 20 C-4.63935804 12.24385331 -4.73220236 6.35889692 0 0 Z " fill="#88886F" transform="translate(98,81)"/>
<path d="M0 0 C0 2.3125 0 2.3125 -1 5 C-3.03167982 5.96329647 -5.01204153 6.5656179 -7.1875 7.12890625 C-9.22032535 7.84483875 -9.22032535 7.84483875 -9.75 10.08984375 C-9.8325 10.72019531 -9.915 11.35054687 -10 12 C-12.475 11.01 -12.475 11.01 -15 10 C-15 8.68 -15 7.36 -15 6 C-16.65 6 -18.3 6 -20 6 C-19.67 5.01 -19.34 4.02 -19 3 C-18.01 3 -17.02 3 -16 3 C-16.99 2.34 -17.98 1.68 -19 1 C-15.66666667 1 -12.33333333 1 -9 1 C-8.38125 0.835 -7.7625 0.67 -7.125 0.5 C-4.69625848 -0.07146859 -2.4865081 -0.06906967 0 0 Z " fill="#A09F80" transform="translate(148,73)"/>
<path d="M0 0 C-1.37154504 2.95409701 -2.98863724 5.44008376 -5 8 C-5.99 7.67 -6.98 7.34 -8 7 C-8 7.99 -8 8.98 -8 10 C-10.31 9.67 -12.62 9.34 -15 9 C-15.125 6.125 -15.125 6.125 -15 3 C-12.43119525 0.43119525 -11.0687833 0.62857144 -7.5 0.375 C-6.03046875 0.26285156 -6.03046875 0.26285156 -4.53125 0.1484375 C-3.0226149 0.05996816 -1.51122688 0 0 0 Z " fill="#9C9B7C" transform="translate(99,106)"/>
<path d="M0 0 C0.66 0.33 1.32 0.66 2 1 C1.67 2.32 1.34 3.64 1 5 C0.195625 5.12375 -0.60875 5.2475 -1.4375 5.375 C-2.7059375 5.684375 -2.7059375 5.684375 -4 6 C-4.33 6.66 -4.66 7.32 -5 8 C-5.804375 8.639375 -6.60875 9.27875 -7.4375 9.9375 C-10.16402037 11.92062468 -10.16402037 11.92062468 -12 15 C-12.66 14.67 -13.32 14.34 -14 14 C-13.75188078 10.96053959 -13.56135741 9.56438132 -12 7 C-8.24933154 4.17628246 -4.31178685 1.86190796 0 0 Z " fill="#090909" transform="translate(142,191)"/>
<path d="M0 0 C0.33 0 0.66 0 1 0 C1 14.85 1 29.7 1 45 C0.67 45 0.34 45 0 45 C-0.33 34.77 -0.66 24.54 -1 14 C-1.33 14 -1.66 14 -2 14 C-2.05410687 12.22950311 -2.09284119 10.45853151 -2.125 8.6875 C-2.14820313 7.70136719 -2.17140625 6.71523437 -2.1953125 5.69921875 C-2 3 -2 3 0 0 Z " fill="#0E0E0E" transform="translate(48,73)"/>
<path d="M0 0 C2.375 0.8125 2.375 0.8125 3.375 2.8125 C2.4375 4.9375 2.4375 4.9375 1.375 6.8125 C-0.275 6.8125 -1.925 6.8125 -3.625 6.8125 C-4.285 5.4925 -4.945 4.1725 -5.625 2.8125 C-3.74442913 0.33806465 -3.19312156 -0.22808011 0 0 Z " fill="#9B9878" transform="translate(118.625,143.1875)"/>
<path d="M0 0 C1.99954746 -0.04254356 4.00041636 -0.04080783 6 0 C7 1 7 1 7.0625 4.0625 C7.041875 5.031875 7.02125 6.00125 7 7 C5.02 7 3.04 7 1 7 C1.020625 6.21625 1.04125 5.4325 1.0625 4.625 C1.18684063 2.01885039 1.18684063 2.01885039 0 0 Z " fill="#090909" transform="translate(204,88)"/>
<path d="M0 0 C3.34373475 0.55728913 6.03312999 1.35173889 9 3 C8.67 3.99 8.34 4.98 8 6 C8.33 6.66 8.66 7.32 9 8 C6.50638429 6.79618552 4.31856917 5.54571278 2 4 C1.01 4.33 0.02 4.66 -1 5 C-0.67 3.35 -0.34 1.7 0 0 Z " fill="#0A0A0A" transform="translate(106,198)"/>
<path d="M0 0 C1.125 1.75 1.125 1.75 2 4 C1.125 6.25 1.125 6.25 0 8 C0 7.34 0 6.68 0 6 C-0.66 6 -1.32 6 -2 6 C-2.33 9.3 -2.66 12.6 -3 16 C-3.33 16 -3.66 16 -4 16 C-4.54330269 9.34454208 -3.77304004 5.54165256 0 0 Z " fill="#808A66" transform="translate(98,81)"/>
<path d="M0 0 C0.66 0 1.32 0 2 0 C1.45276317 3.37462715 0.9451 5.08235 -1 8 C-1.99 7.67 -2.98 7.34 -4 7 C-4.33 6.01 -4.66 5.02 -5 4 C-4.34 4 -3.68 4 -3 4 C-3 3.34 -3 2.68 -3 2 C-2.01 2 -1.02 2 0 2 C0 1.34 0 0.68 0 0 Z " fill="#A3A080" transform="translate(133,141)"/>
<path d="M0 0 C-2.21934164 3.32901247 -3.34683329 3.75023244 -7 5 C-7.66 3.68 -8.32 2.36 -9 1 C-5.64919071 -1.10976881 -3.77897651 -1.0497157 0 0 Z " fill="#979678" transform="translate(144,75)"/>
<path d="M0 0 C0 1.65 0 3.3 0 5 C-1.98 5 -3.96 5 -6 5 C-5.625 3.0625 -5.625 3.0625 -5 1 C-3 0 -3 0 0 0 Z " fill="#0A0A0A" transform="translate(236,135)"/>
<path d="M0 0 C1.98 0.99 1.98 0.99 4 2 C3.67 3.65 3.34 5.3 3 7 C2.01 7 1.02 7 0 7 C0 4.69 0 2.38 0 0 Z " fill="#0D0D0D" transform="translate(215,88)"/>
<path d="M0 0 C0.66 0 1.32 0 2 0 C2 0.99 2 1.98 2 3 C2.99 3 3.98 3 5 3 C5.33 2.34 5.66 1.68 6 1 C6 2.32 6 3.64 6 5 C4.35 5 2.7 5 1 5 C0.34 3.68 -0.32 2.36 -1 1 C-0.67 0.67 -0.34 0.34 0 0 Z " fill="#949471" transform="translate(114,145)"/>
<path d="M0 0 C3 1 3 1 5 5 C1.37 4.67 -2.26 4.34 -6 4 C-6 3.67 -6 3.34 -6 3 C-4.02 2.67 -2.04 2.34 0 2 C0 1.34 0 0.68 0 0 Z " fill="#8F8E6F" transform="translate(108,145)"/>
<path d="M0 0 C0.66 0.33 1.32 0.66 2 1 C2 1.66 2 2.32 2 3 C-0.5 4.625 -0.5 4.625 -3 6 C-3.33 4.68 -3.66 3.36 -4 2 C-2.125 0.9375 -2.125 0.9375 0 0 Z " fill="#0A0A0A" transform="translate(197,159)"/>
<path d="M0 0 C1.32 0 2.64 0 4 0 C4.33 0.99 4.66 1.98 5 3 C3.68 3.33 2.36 3.66 1 4 C0.34 3.01 -0.32 2.02 -1 1 C-0.67 0.67 -0.34 0.34 0 0 Z " fill="#959473" transform="translate(129,79)"/>
</svg>
